<?xml version="1.0" encoding="UTF-8" standalone="no"?>
<!-- Uploaded to: SVG Repo, www.svgrepo.com, Generator: SVG Repo Mixer Tools -->

<svg
   width="20"
   height="20"
   viewBox="0 0 0.6 0.6"
   fill="none"
   version="1.1"
   id="svg1"
   sodipodi:docname="CollectGarbage.svg"
   inkscape:version="1.4 (86a8ad7, 2024-10-11)"
   xmlns:inkscape="http://www.inkscape.org/namespaces/inkscape"
   xmlns:sodipodi="http://sodipodi.sourceforge.net/DTD/sodipodi-0.dtd"
   xmlns="http://www.w3.org/2000/svg"
   xmlns:svg="http://www.w3.org/2000/svg">
  <defs
     id="defs1" />
  <sodipodi:namedview
     id="namedview1"
     pagecolor="#505050"
     bordercolor="#eeeeee"
     borderopacity="1"
     inkscape:showpageshadow="0"
     inkscape:pageopacity="0"
     inkscape:pagecheckerboard="0"
     inkscape:deskcolor="#505050"
     inkscape:zoom="53.57041"
     inkscape:cx="17.575001"
     inkscape:cy="11.125545"
     inkscape:window-width="5120"
     inkscape:window-height="2089"
     inkscape:window-x="1192"
     inkscape:window-y="-8"
     inkscape:window-maximized="1"
     inkscape:current-layer="svg1" />
  <path
     d="M 0.3,0.24544789 V 0.43635696 M 0.19090908,0.24544789 V 0.43635696 M 0.49090907,0.21817515 h 0.0818182 m -0.0818182,0.13636362 h 0.0818182 m -0.0818182,0.13636362 h 0.0545454 M 0.40909088,0.13635698 v 0.27818179 c 0,0.0458236 0,0.0687327 -0.008918,0.0862364 -0.007844,0.0153953 -0.0203591,0.027911 -0.0357545,0.0357545 -0.0175036,0.008918 -0.0404127,0.008918 -0.0862363,0.008918 h -0.0654546 c -0.0458225,0 -0.0687338,0 -0.0862355,-0.008918 C 0.11109655,0.52868602 0.09858,0.51617057 0.09073582,0.50077513 0.08181818,0.48327148 0.08181818,0.4603624 0.08181818,0.41453877 V 0.13635698 m -0.05454546,0 h 0.43636362 m -0.10909091,0 -0.00738,-0.0221434 C 0.34001178,0.09275472 0.33643361,0.08202536 0.32980089,0.0740928 0.32394273,0.0670878 0.3164209,0.06166573 0.3079227,0.05832373 0.29829818,0.05453881 0.28699091,0.05453881 0.2643709,0.05453881 h -0.0378319 c -0.0226195,0 -0.0339292,0 -0.0435523,0.0037848 -0.008498,0.003342 -0.0160208,0.008764 -0.0218787,0.015769 -0.006634,0.0079326 -0.0102102,0.01866191 -0.0173632,0.04012062 l -0.007381,0.0221434"
     stroke="#ffffff"
     stroke-width="0.0545455"
     stroke-linecap="round"
     stroke-linejoin="round"
     id="path1" />
</svg>
